<svg width="42" height="35" viewBox="0 0 42 35" fill="none" xmlns="http://www.w3.org/2000/svg">
<g opacity="0.8">
<path d="M22.2562 9.32959H19.5381V5.12024H22.2562V9.32959Z" fill="white"/>
<path d="M5.35742 11.6064H36.4375V9.21033H5.35742V11.6064Z" fill="white"/>
<path d="M20.9621 3.51105H3.68359L4.65287 5.28125H37.1447L38.1142 3.51105H20.9621Z" fill="white"/>
<path d="M20.8976 2.44848C15.3804 2.44675 2.07495 2.18336 0.479492 0.54895C1.47003 2.77225 2.79739 3.52783 2.79739 3.52783H20.8344H20.9608H38.9978C38.9978 3.52783 40.3253 2.77225 41.3156 0.54895C39.7201 2.18336 26.4146 2.44675 20.8976 2.44848Z" fill="white"/>
<path d="M7.14839 10.4196L6.02106 9.65881V9.21045H5.35742V9.21083V11.607V11.6074H6.02106V11.1669L7.14839 10.4196Z" fill="white"/>
<path d="M34.6465 10.4186L35.7738 9.65783V9.20947H36.4376V9.20986V11.6063V11.6064H35.7738V11.1662L34.6465 10.4186Z" fill="white"/>
<path d="M10.1338 32.396H13.168V5.8432H10.1338V32.396Z" fill="white"/>
<path d="M10.5723 8.56903L8.44238 8.14337V9.44727H10.91L10.5723 8.56903Z" fill="white"/>
<path d="M12.7284 8.56903L14.8585 8.14337V9.44727H12.3906L12.7284 8.56903Z" fill="white"/>
<path d="M9.66992 6.2749H13.6312V5.19556H9.66992V6.2749Z" fill="white"/>
<path d="M9.55762 11.6064H10.1342V9.44666H9.55762V11.6064Z" fill="white"/>
<path d="M10.1338 11.6064H10.1471V9.44666H10.1338V11.6064Z" fill="white"/>
<path d="M10.1476 9.44727H9.55762V8.36615L10.1476 8.48401V9.44727Z" fill="white"/>
<path d="M13.1689 11.6064H13.7565V9.44666H13.1689V11.6064Z" fill="white"/>
<path d="M13.7565 9.44727H13.1689V8.4816L13.4392 8.42739L13.7565 8.36414V9.44727Z" fill="white"/>
<path d="M9.66992 34.123H13.6312V29.5031H9.66992V34.123Z" fill="white"/>
<path d="M28.626 32.396H31.6602V5.8432H28.626V32.396Z" fill="white"/>
<path d="M29.0657 8.56903L26.9355 8.14337V9.44727H29.4034L29.0657 8.56903Z" fill="white"/>
<path d="M31.2216 8.56903L33.3518 8.14337V9.44727H30.8838L31.2216 8.56903Z" fill="white"/>
<path d="M28.1631 6.2749H32.1244V5.19556H28.1631V6.2749Z" fill="white"/>
<path d="M28.0508 11.6064H28.6275V9.44666H28.0508V11.6064Z" fill="white"/>
<path d="M28.6406 9.44727H28.0508V8.36615L28.6406 8.48401V9.44727Z" fill="white"/>
<path d="M31.6611 11.6064H32.2487V9.44666H31.6611V11.6064Z" fill="white"/>
<path d="M32.2487 9.44727H31.6611V8.4816L31.967 8.42027L32.2487 8.36414V9.44727Z" fill="white"/>
<path d="M28.1631 34.123H32.1244V29.5031H28.1631V34.123Z" fill="white"/>
<path d="M4.44815 3.47591L4.92222 4.38262H7.44685L5.19882 4.90865L5.40833 5.28125H4.65494L3.51172 3.28961L4.44815 3.47591Z" fill="white"/>
<path d="M37.3483 3.47591L36.8743 4.38262H34.3496L36.5977 4.90865L36.3882 5.28125H37.1415L38.2848 3.28961L37.3483 3.47591Z" fill="white"/>
<path d="M13.168 29.5029H10.1338V28.9005H12.1268C12.1934 20.2923 12.2308 15.466 12.2975 6.85772H10.1338V6.27496H13.168V8.48102L12.7291 8.56869L12.3913 9.44696H13.1655V11.6069H13.168V29.5029Z" fill="white"/>
<path d="M13.1648 9.44727H12.3906L12.7284 8.56905L13.1673 8.48138V8.48158L13.1648 8.48196V9.44727Z" fill="white"/>
<path d="M10.1338 6.2749H13.168V6.2535H10.1338V6.2749Z" fill="white"/>
<path d="M13.165 11.6064H13.1675V9.44666H13.165V11.6064Z" fill="white"/>
<path d="M13.1675 9.44727H13.165V8.48195L13.1675 8.48157V9.44727Z" fill="white"/>
<path d="M10.1338 29.5054H13.168V29.5031H10.1338V29.5054Z" fill="white"/>
<path d="M31.6602 29.5029H28.626V28.9005H30.619L30.7896 6.85772H28.626V6.27496H31.6602V8.48101L31.2212 8.56869L30.8834 9.44696H31.6577V11.6069H31.6602V29.5029Z" fill="white"/>
<path d="M31.6581 9.44727H30.8838L31.2216 8.56905L31.6605 8.48138V8.48158L31.6581 8.48196V9.44727Z" fill="white"/>
<path d="M31.6572 11.6064H31.6596V9.44666H31.6572V11.6064Z" fill="white"/>
<path d="M31.6597 9.44727H31.6572V8.48195L31.6597 8.48157V9.44727Z" fill="white"/>
<path d="M28.626 29.5054H31.6602V29.5031H28.626V29.5054Z" fill="white"/>
</g>
</svg>
