<svg width="19" height="11" viewBox="0 0 19 11" fill="none" xmlns="http://www.w3.org/2000/svg">
<path d="M17.7814 1.57896C18.2729 1.57896 18.6714 1.28892 18.6714 0.931142C18.6714 0.598917 18.3278 0.325102 17.8852 0.287681L17.7814 0.283322H1.76111C1.26957 0.283322 0.871094 0.573361 0.871094 0.931142C0.871094 1.26337 1.21468 1.53718 1.65732 1.5746L1.76111 1.57896H17.7814ZM17.7814 6.1137C18.2729 6.1137 18.6714 5.82366 18.6714 5.46588C18.6714 5.13365 18.3278 4.85984 17.8852 4.82242L17.7814 4.81806H1.76111C1.26957 4.81806 0.871094 5.1081 0.871094 5.46588C0.871094 5.79811 1.21468 6.07192 1.65732 6.10934L1.76111 6.1137H17.7814ZM17.7814 10.6484C18.2729 10.6484 18.6714 10.3584 18.6714 10.0006C18.6714 9.66839 18.3278 9.39458 17.8852 9.35716L17.7814 9.3528H1.76111C1.26957 9.3528 0.871094 9.64284 0.871094 10.0006C0.871094 10.3328 1.21468 10.6067 1.65732 10.6441L1.76111 10.6484H17.7814Z" fill="#39565E"/>
</svg>
