<svg width="42" height="33" viewBox="0 0 42 33" fill="none" xmlns="http://www.w3.org/2000/svg">
<path d="M22.2562 8.5708H19.5381V4.46205H22.2562V8.5708Z" fill="#2B7683"/>
<path d="M5.35742 10.7935H36.4375V8.4546H5.35742V10.7935Z" fill="#2B7683"/>
<path d="M20.9621 2.8913H3.68359L4.65287 4.61914H37.1447L38.1142 2.8913H20.9621Z" fill="#2B7683"/>
<path d="M20.8976 1.85416C15.3804 1.85247 2.07495 1.59537 0.479492 2.47955e-05C1.47003 2.17019 2.79739 2.90771 2.79739 2.90771H20.8344H20.9608H38.9978C38.9978 2.90771 40.3253 2.17019 41.3156 2.47955e-05C39.7201 1.59537 26.4146 1.85247 20.8976 1.85416Z" fill="#2B7683"/>
<path d="M7.14839 9.63455L6.02106 8.89195V8.45432H5.35742V8.4547V10.7936V10.7939H6.02106V10.364L7.14839 9.63455Z" fill="#2B7683"/>
<path d="M34.6465 9.63406L35.7738 8.89146V8.45383H36.4376V8.4542V10.7933V10.7935H35.7738V10.3637L34.6465 9.63406Z" fill="#2B7683"/>
<path d="M10.1338 31.0854H13.168V5.16789H10.1338V31.0854Z" fill="#2B7683"/>
<path d="M10.5723 7.82829L8.44238 7.4128V8.68555H10.91L10.5723 7.82829Z" fill="#2B7683"/>
<path d="M12.7294 7.82829L14.8595 7.4128V8.68555H12.3916L12.7294 7.82829Z" fill="#2B7683"/>
<path d="M9.66992 5.58887H13.6312V4.5353H9.66992V5.58887Z" fill="#2B7683"/>
<path d="M9.55762 10.7935H10.1342V8.68522H9.55762V10.7935Z" fill="#2B7683"/>
<path d="M10.1338 10.7935H10.1471V8.68522H10.1338V10.7935Z" fill="#2B7683"/>
<path d="M10.1476 8.68555H9.55762V7.6303L10.1476 7.74534V8.68555Z" fill="#2B7683"/>
<path d="M13.1689 10.7935H13.7565V8.68522H13.1689V10.7935Z" fill="#2B7683"/>
<path d="M13.7565 8.68555H13.1689V7.7429L13.4392 7.68998L13.7565 7.62824V8.68555Z" fill="#2B7683"/>
<path d="M9.66992 32.771H13.6312V28.2616H9.66992V32.771Z" fill="#2B7683"/>
<path d="M28.626 31.0854H31.6602V5.16789H28.626V31.0854Z" fill="#2B7683"/>
<path d="M29.0657 7.82829L26.9355 7.4128V8.68555H29.4033L29.0657 7.82829Z" fill="#2B7683"/>
<path d="M31.2216 7.82829L33.3518 7.4128V8.68555H30.8838L31.2216 7.82829Z" fill="#2B7683"/>
<path d="M28.1631 5.58887H32.1244V4.5353H28.1631V5.58887Z" fill="#2B7683"/>
<path d="M28.0508 10.7935H28.6275V8.68522H28.0508V10.7935Z" fill="#2B7683"/>
<path d="M28.6406 8.68555H28.0508V7.6303L28.6406 7.74534V8.68555Z" fill="#2B7683"/>
<path d="M31.6611 10.7935H32.2487V8.68522H31.6611V10.7935Z" fill="#2B7683"/>
<path d="M32.2487 8.68555H31.6611V7.7429L31.967 7.68304L32.2487 7.62824V8.68555Z" fill="#2B7683"/>
<path d="M28.1631 32.771H32.1244V28.2616H28.1631V32.771Z" fill="#2B7683"/>
<path d="M4.44815 2.85696L4.92221 3.74199H7.44684L5.19881 4.25544L5.40832 4.61914H4.65494L3.51172 2.67511L4.44815 2.85696Z" fill="#2B7683"/>
<path d="M37.3483 2.85696L36.8743 3.74199H34.3496L36.5977 4.25544L36.3882 4.61914H37.1415L38.2848 2.67511L37.3483 2.85696Z" fill="#2B7683"/>
<path d="M13.168 28.2612H10.1338V27.6732H12.1268C12.1934 19.2709 12.2308 14.5601 12.2975 6.15779H10.1338V5.58897H13.168V7.74225L12.7291 7.82783L12.3913 8.68508H13.1655V10.7933H13.168V28.2612Z" fill="#2B7683"/>
<path d="M13.1658 8.68555H12.3916L12.7294 7.82829L13.1683 7.74271V7.7429L13.1658 7.74328V8.68555Z" fill="#2B7683"/>
<path d="M10.1338 5.58887H13.168V5.56746H10.1338V5.58887Z" fill="#2B7683"/>
<path d="M13.165 10.7935H13.1675V8.68522H13.165V10.7935Z" fill="#2B7683"/>
<path d="M13.1675 8.68555H13.165V7.74328L13.1675 7.7429V8.68555Z" fill="#2B7683"/>
<path d="M10.1338 28.2642H13.168V28.2619H10.1338V28.2642Z" fill="#2B7683"/>
<path d="M31.6602 28.2612H28.626V27.6732H30.619L30.7896 6.15779H28.626V5.58897H31.6602V7.74225L31.2212 7.82783L30.8834 8.68508H31.6577V10.7933H31.6602V28.2612Z" fill="#2B7683"/>
<path d="M31.6581 8.68555H30.8838L31.2216 7.82829L31.6605 7.74271V7.7429L31.6581 7.74328V8.68555Z" fill="#2B7683"/>
<path d="M31.6572 10.7935H31.6596V8.68522H31.6572V10.7935Z" fill="#2B7683"/>
<path d="M31.6597 8.68555H31.6572V7.74328L31.6597 7.7429V8.68555Z" fill="#2B7683"/>
<path d="M28.626 28.2642H31.6602V28.2619H28.626V28.2642Z" fill="#2B7683"/>
</svg>
