<svg width="27" height="19" viewBox="0 0 27 19" fill="none" xmlns="http://www.w3.org/2000/svg">
<g opacity="0.7">
<path d="M14.0516 4.95093H12.3301V2.71362H14.0516V4.95093Z" fill="#10272D"/>
<path d="M3.34961 6.16064H23.0338V4.88708H3.34961V6.16064Z" fill="#10272D"/>
<path d="M13.2342 1.85798H2.29102L2.9049 2.79883H23.4833L24.0973 1.85798H13.2342Z" fill="#10272D"/>
<path d="M13.1914 1.29302C9.69711 1.2921 1.27023 1.1521 0.259766 0.283398C0.887112 1.4651 1.72778 1.8667 1.72778 1.8667H13.1513H13.2314H24.6549C24.6549 1.8667 25.4957 1.4651 26.1229 0.283398C25.1124 1.1521 16.6855 1.2921 13.1914 1.29302Z" fill="#10272D"/>
<path d="M4.4839 5.52982L3.76992 5.12546V4.88716H3.34961V4.88736V6.16093V6.16113H3.76992V5.92702L4.4839 5.52982Z" fill="#10272D"/>
<path d="M21.8984 5.52933L22.6124 5.12497V4.88667H23.0328V4.88687V6.16054V6.16064H22.6124V5.92663L21.8984 5.52933Z" fill="#10272D"/>
<path d="M6.37305 17.2102H8.29476V3.09753H6.37305V17.2102Z" fill="#10272D"/>
<path d="M6.6517 4.54615L5.30273 4.3199V5.01294H6.8656L6.6517 4.54615Z" fill="#10272D"/>
<path d="M8.01863 4.54615L9.36769 4.3199V5.01294H7.80469L8.01863 4.54615Z" fill="#10272D"/>
<path d="M6.08203 3.3269H8.59087V2.75321H6.08203V3.3269Z" fill="#10272D"/>
<path d="M6.00977 6.16064H6.37497V5.01266H6.00977V6.16064Z" fill="#10272D"/>
<path d="M6.37305 6.16064H6.38222V5.01266H6.37305V6.16064Z" fill="#10272D"/>
<path d="M6.38341 5.01294H6.00977V4.43834L6.38341 4.50098V5.01294Z" fill="#10272D"/>
<path d="M8.29492 6.16064H8.66704V5.01266H8.29492V6.16064Z" fill="#10272D"/>
<path d="M8.66705 5.01294H8.29492V4.49965L8.46606 4.47083L8.66705 4.43721V5.01294Z" fill="#10272D"/>
<path d="M6.08203 18.1277H8.59087V15.6722H6.08203V18.1277Z" fill="#10272D"/>
<path d="M18.0859 17.2102H20.0076V3.09753H18.0859V17.2102Z" fill="#10272D"/>
<path d="M18.3628 4.54615L17.0137 4.3199V5.01294H18.5766L18.3628 4.54615Z" fill="#10272D"/>
<path d="M19.7296 4.54615L21.0787 4.3199V5.01294H19.5156L19.7296 4.54615Z" fill="#10272D"/>
<path d="M17.793 3.3269H20.3018V2.75321H17.793V3.3269Z" fill="#10272D"/>
<path d="M17.7207 6.16064H18.086V5.01266H17.7207V6.16064Z" fill="#10272D"/>
<path d="M18.0943 5.01294H17.7207V4.43834L18.0943 4.50098V5.01294Z" fill="#10272D"/>
<path d="M20.0078 6.16064H20.3799V5.01266H20.0078V6.16064Z" fill="#10272D"/>
<path d="M20.38 5.01294H20.0078V4.49965L20.2015 4.46705L20.38 4.43721V5.01294Z" fill="#10272D"/>
<path d="M17.793 18.1277H20.3018V15.6722H17.793V18.1277Z" fill="#10272D"/>
<path d="M2.77277 1.83928L3.07301 2.3212H4.67196L3.24819 2.60079L3.38088 2.79883H2.90373L2.17969 1.74026L2.77277 1.83928Z" fill="#10272D"/>
<path d="M23.6101 1.83928L23.3099 2.3212H21.7109L23.1347 2.60079L23.0021 2.79883H23.4792L24.2032 1.74026L23.6101 1.83928Z" fill="#10272D"/>
<path d="M8.29475 15.6729H6.37305V15.3527H7.63529C7.67751 10.7774 7.70118 8.21228 7.74341 3.63704H6.37305V3.32731H8.29475V4.49981L8.01678 4.54641L7.80284 5.01321H8.29317V6.16119H8.29475V15.6729Z" fill="#10272D"/>
<path d="M8.29502 5.01294H7.80469L8.01863 4.54615L8.2966 4.49955V4.49965L8.29502 4.49985V5.01294Z" fill="#10272D"/>
<path d="M6.37305 3.3269H8.29476V3.31388H6.37305V3.3269Z" fill="#10272D"/>
<path d="M8.29492 6.16064H8.29663V5.01266H8.29492V6.16064Z" fill="#10272D"/>
<path d="M8.29664 5.01294H8.29492V4.49985L8.29664 4.49965V5.01294Z" fill="#10272D"/>
<path d="M6.37305 15.6738H8.29476V15.6723H6.37305V15.6738Z" fill="#10272D"/>
<path d="M20.0076 15.6729H18.0859V15.3527H19.3482L19.4562 3.63704H18.0859V3.32731H20.0076V4.49981L19.7296 4.54641L19.5157 5.01321H20.0061V6.16119H20.0076V15.6729Z" fill="#10272D"/>
<path d="M20.006 5.01294H19.5156L19.7296 4.54615L20.0076 4.49955V4.49965L20.006 4.49985V5.01294Z" fill="#10272D"/>
<path d="M20.0078 6.16064H20.0095V5.01266H20.0078V6.16064Z" fill="#10272D"/>
<path d="M20.0095 5.01294H20.0078V4.49985L20.0095 4.49965V5.01294Z" fill="#10272D"/>
<path d="M18.0859 15.6738H20.0076V15.6723H18.0859V15.6738Z" fill="#10272D"/>
</g>
</svg>
